<?xml version="1.0" encoding="UTF-8"?> <svg xmlns="http://www.w3.org/2000/svg" width="465" height="368" viewBox="0 0 465 368"><g fill="none" fill-rule="evenodd"><path d="M309.624 134.496c-3.937 7.79-8.097 15.374-12.297 23.022-2.223 4.05-9.394 20.796-11.246 21.436-1.994.689-14.21-6.582-17.716-8.006-6.23-2.531-12.15-4.927-18.659-6.488-7.287-1.748-14.632-3.036-22.191-2.387-3.31.285-8.79 1.095-5.5-3.612 2.398-3.432 4.722-6.593 7.98-9.072 2.37-1.806 5.846-5.117 8.623-6.322 2.912-1.266 7.208-.985 10.339-.91 3.384.08 19.514 5.174 20.401-.135 1.645 1.515 2.603.929 4.488 1.669 2.125.834 3.45 2.453 5.56 3.43 1.369.635 3.892 3.143 5.414 3.158 2.023.02 2.567-1.675 4.02-2.926 3.255-2.805 7.589-4.65 11.12-7.087 3.11-2.146 6.07-4.384 9.664-5.77zm-35.437-61.58c-.276 3.556.672 6.86.65 10.52-.01 1.597-.082 3.193.397 4.732.43 1.379.13 3.856.358 5.3-4.026-1.24-11.504-3.079-15.613-1.406-3.93 1.598-4.423 8.992-4.562 12.587-.094 2.451.98 6.227.166 8.573-.38 1.095-.383 1.448-.36 1.546l.004.011c-.078-.04-.394-.04-1.506.773-1.103.804-2.42 1.248-3.51 2.137-1.982 1.618-2.322 3.453-3.3 5.798-.95 2.279-3.481 4.304-6.307 4.221 2.271-4.166 5.425-8.058 3.615-12.951-1.365-3.694 1.028-8.028 2.91-11.537.624-1.162 7.534-10.064 4.472-10.692-1.988-.408-6.551 9.042-7.425 10.692-2.435-1.666-3.529-3.72-1.654-6.23 1.44-1.927 3.207-3.575 4.608-5.57 2.275-3.24 4.492-7.106 7.194-9.983 4.746-5.052 13.03-8.49 19.863-8.522zm63.776-5.52c3.033 2.94 6.869 5.379 9.799 8.464 2.565 2.702 6.02 7.245 7.238 10.854-6.253 1.22-16.642 4.955-19.132 11.597-9.724-9.035-13.486 7.482-15.416 14.39-5.691-2.493-4.556-10.791-4.48-15.636.058-3.843 2.37-8.392-3.143-8.707-4.12-.234-8.122 1.464-11.838 3.055-4.637 1.984-9.501 4.953-13.247 8.362l-3.902-3.074c6.401-3.638 9.738-10.593 13.485-16.96 1.196-2.031 2.792-4.289 3.664-6.483.603-1.518 1.027-4.581 1.688-5.93 1.04-2.122 11.197-2.706 13.887-3.252 7.103-1.443 15.593-2.308 21.397 3.32z" fill="#FFC107"></path><path d="M289.753.48c1.82.29 2.586.98 4.125 1.754 1.48.745 2.982.949 4.59 1.428 1.43.426 2.685.642 3.651 1.888.764.985.453 2.643 1.225 3.493.76.837 2.267.716 3.174 1.71.87.954 1.392 2.531 1.844 3.719.612 1.599.684 2.2 1.76 3.48.94 1.117 2.291 2.015 3.075 3.29 1.845 3.003 1.893 7.347 1.303 10.726-.2 1.15-1.869 4.125-1.607 5.104.248.932 1.813.687 2.522 1.276.612.51 1.15 2.779 1.634 2.917 1.043.3 2.33-1.76 3.12-2.068 1.374-.537 1.949-1.088 2.71.935.564 1.502-.222 3.54-.636 4.973-.526 1.824-1.107 4.021-2.502 5.4-1.64 1.622-2.951.736-4.76 1.609-2.711 1.309-1.911 5.402-5.247 6.571-3.179 1.115-6.68-2.392-9.085-4.004.498 3.914 2.372 7.684 1.473 11.695 7.31-2.863 14.541-6.925 22.509-7.82 4.062-.457 8.166-.998 12.001.688 4.49 1.973 7.24 6.324 10.278 9.94 5.71 6.795 11.57 13.4 17.05 20.415 5.028 6.434 9.266 13.89 14.8 19.914 5.61 6.11 9.844 16.022 9.23 24.482-.055.763-.647 2.498-.555 3.322.073.63.646 1.43.637 1.939-.03 1.712-.597 2.697-2.23 3.647-2.83 1.647-7.048 2.481-10.247 2.89-4.25.543-9.456.602-13.708.022-4.385-.6-8.24-3.053-12.273-4.535-3.538-1.301-7.09-2.114-10.808-2.944-2.05-.458-4.32-1.725-5.588-.498-1.163 1.127-1.405 6.913-1.676 8.451-2.94 16.675-6.436 32.784-9.531 49.373-3.509 18.804-5.908 37.6-8.347 56.563-2.218 17.238-2.943 34.67-3.439 51.892-.237 8.215-.27 16.342-.22 24.564.027 4.604 2.33 19.973-4.499 20.56-4.013.348-7.224-5.403-8.3-8.539-1.615-4.711-2.457-9.785-2.714-14.735-.521-10.02-1.205-20.047-1.61-30.071-.438-10.86.12-21.92 1.013-32.745.9-10.897 3.165-21.635 3.86-32.548-2.085 2.973-2.752 3.532-6.224 4.826-3.633 1.356-7.128 2.96-10.794 4.223-1.248.43-3.194.7-4.216 1.403-1.887 1.299-.648-.175-1.25 2.353-.643 2.7-.764 5.942-.935 8.716-.804 13.021-4.413 25.95-6.078 38.902-.402 3.128.172 16.403-5.214 12.22-4.147-3.223-4.065-13.344-4.655-18.084-.786-6.32-.348-12.816-.224-19.174.142-7.24.263-14.834 1.992-21.903-3.093-.53-7.395.912-10.509 1.154-2.695.21-5.382.343-8.062.49-6.393.351-12.978.631-19.478.506-1.184-.023-8.915-1.105-9.903-.233-.321.283-.419 4.179-.479 4.655-.227 1.79-.536 3.578-.766 5.358-.734 5.69-1.397 11.8-1.187 17.488.163 6.864-.085 13.769.061 20.664.157 7.364 1.102 14.581 1.553 21.87.404 6.534 1.287 12.943 2.004 19.446.412 3.745.888 7.326 1.522 11.043.594 3.478.696 6.543-3.465 7.478-7.955 1.789-9.191-9.648-10.728-14.467-2.296-7.192-3.767-14.742-4.904-22.197-2.117-13.885-4.932-27.576-6.03-41.579-.677-8.622-1.658-17.156-2.214-25.77-.11-1.689.322-4.29-1.162-5.042-.893-.451-3.35-.455-4.476-.782-3.137-.912-6.032-2.256-9.093-3.65 2.173 11.355 2.89 22.652 4.52 34.106.865 6.077 2.52 12.374 3.954 18.356 1.486 6.198 1.816 12.872 3.53 18.936.755 2.672 1.395 3.761.299 6.504-1.345 3.367-.453 4.173 1.233 7.48 3.101 6.084 5.469 13.264 4.943 20.122-.429 5.602-4.664 8.534-9.91 10.045-6.562 1.89-13.434 1.667-20.036 3.813-5.752 1.87-11.596 3.25-17.181 5.72-2.252.994-4.392 2.175-6.893 2.358-3.43.249-5.743-1.74-8.983-2.155-2.024-.258-4.99.707-6.156-1.414-.924-1.682.122-5.351 1.283-6.705 3.261-3.804 9.791-7.119 14.189-9.364 5.068-2.587 9.972-5.825 14.668-9.164 2.847-2.025 5.75-3.967 8.594-5.995 1.881-1.343 2.596-1.352 2.404-3.484-.153-1.7-.92-3.35-1.054-5.091-.103-1.334.365-3.153-.266-4.024-.464-.642-2.206-1.094-2.89-1.58-2.505-1.775-3.074-3.97-4.211-6.669-2.583-6.13-5.551-12.087-8.046-18.266-5.356-13.267-8.624-27.218-13.064-40.756-4.536-13.83-8.592-28.35-11.09-42.7-3.344 1.017-6.499 5.516-9.16 7.742-3.598 3.008-7.283 5.917-10.81 9.008-5.782 5.066-11.635 9.994-16.413 16.061-2.302 2.922-4.187 6.067-6.27 9.138-1.204 1.773-2.327 3.78-3.63 5.468-.21.271-.215.827-.441 1.058-.497.506-1.445-.168-1.763.165-1.964 2.053-1.939 7.882-2.551 10.59-.843 3.734-1.79 8.027-4.707 10.6-4.506 3.973-12.815 4.589-18.516 4.795-7.318.265-14.416 2.303-21.359 4.492-3.238 1.02-6.392 2.214-9.642 3.205-1.87.571-4.002 1.709-5.999 1.49-2.407-.264-4.309-2.288-6.072-3.793-2.821-2.407-5.434-4.78-5.345-8.73.104-4.18 2.37-7.336 5.94-9.412 6.902-4.016 14.621-6.589 22.06-9.363 2.852-1.064 5.292-2.241 8.018-3.673 3.852-2.024 8.285-3.676 11.703-6.348 1.007-.789 4.71-3.204 5.026-4.45.041-.163-.884-2.065-.888-2.367-.01-.776.45-1.616.733-2.28 1.78-4.183 4.766-8.21 7.049-12.153 4.18-7.224 8.376-14.485 13.223-21.279 9.665-13.544 20.521-26.806 32.239-38.629 5.712-5.764 10.649-12.302 16.441-17.986 2.296-2.251 4.718-4.085 7.546-5.546 3.152-1.63 6.69-1.949 10.304-2.446 8.756-1.205 16.069 1.384 24.29 3.636 7.77 2.13 15.55 3.926 23.366 6.143 8.582 2.436 17.076 4.772 25.632 7.426 4.571 1.418 9.274 2.289 13.867 3.65 2.211.654 10.572 4.758 12.416 3.41-5.809-2.724-11.76-5.207-17.974-6.85-1.83-.485-2.999.051-2.93-2.05.037-1.145 1.325-2.69 1.788-3.634 1.11-2.257 2.368-4.463 3.455-6.727-3.94 1.118-14.53 4.987-17.498.987-3.107-4.187-.513-12.395 1.434-16.494 5.083-10.701 13.728-19.631 22.151-27.698 1.822-1.744 5.75-4.021 6.72-6.242.296-.676-.346-1.668.32-2.546.396-.521 1.987-.878 2.623-1.44.186-.165.37-.345.55-.536.194-1.028.604-1.898 1.529-2.39l-1.244 2.07c1.933-2.232 3.527-5.836 4.93-8.192 1.676-2.813 3.186-5.86 5.293-8.383 3.445-4.128 7.001-8.503 12.58-9.468 2.736-.474 5.642-.221 8.264-1.166 3.172-1.142 6.185-2.941 9.387-4.124-.794-1.632-1.438-4.228-2.98-4.406-1.484-.172-3.66 1.103-5.359 1.094-2.48-.014-4.598-.41-6.992-.883-2.65-.524-3.522-.428-4.488-3.3-1.013-3.01-.758-6.505-.75-9.63.005-1.527.308-3.423.178-4.922-.196-2.259-.635-2.345-2.407-3.782l-.262-.214c-2.157-1.768-4.573-4.078-1.968-7.074 1.465-1.684 4.476-.374 5.773-2.185 1.322-1.843 1.258-6.476 1.66-8.642-4.074 2.002-2.58-5.48-2.58-7.281-.001-2.62-1.758-7.332.771-9.512 1.176-1.012 2.049-.175 3.392-.756 1.534-.664 2.5-2.405 4.13-3.08 3.243-1.342 6.554.274 9.883.008 3.819-.306 7.57-.896 11.41-.284zm149.812 324.642c4.194.836 8.55 1.933 12.548 3.484 4.156 1.612 7.873 1.949 8.871 6.657 2.125-.997 3.723-1.141 3.469 1.786-.074.86-.7 1.796-.85 2.683-.22 1.308.166 2.687-.052 3.998-.795 4.767-7.228 8.3-11.214 10.172-4.916 2.308-11.258 5.718-16.746 6.169-5.847.48-12.22-1.815-18.026-2.027-1.07-1.029-4.292-.984-5.634-1.298-2.644-.617-5.249-1.259-7.927-1.722-4.348-.752-11.215-1.088-11.687-6.725-.394-4.684 5.27-5.795 8.582-7.382 4.981-2.388 10.063-4.59 15.17-6.696 4.79-1.973 9.648-3.642 14.524-5.347.951-.332 1.723-.287 2.5-1.047.612-.6.423-1.766 1.094-2.393 1.537-1.436 3.531-.68 5.378-.312zm-275-3.166c2.16 4.029 6.702 9.924 3.441 14.587-1.218 1.742-3.245 2.24-5.055 3.123-2.191 1.07-4.214 2.44-6.285 3.715-8.542 5.256-17.222 10.586-26.223 15.096 2.818.908 7.15 1.537 10.052.746 3.379-.923 6.507-3.04 9.977-3.966 6.223-1.66 12.775-3.074 19.097-3.925 5.169-.696 18.106.876 17.478-6.892-.597-7.375-5.005-14.411-6.316-21.702-3.22.714-6.29.59-9.578.641l-6.588-1.423zm268.156 10.21c-9.272 5.282-19.647 8.914-29.413 13.2 2.867 2.523 9.317 2.632 12.901 3.437 2.617.586 5.106 1.389 7.613 2.318 2.333.866 6.093 2.857 8.554 2.923 2.077.057 3.766-1.987 5.555-3.087a564.351 564.351 0 0 1 7.065-4.283c5.018-2.987 9.71-6.649 14.471-10.02-2.263-1.944-4.511-1.745-7.313-2.334-2.58-.543-5.087-1.477-7.661-2.099-2.02-.487-4.02-1.147-6.034-1.608-2.843-.652-3.123.065-5.738 1.554zm28.366 9.803c-4.147 3.262-8.002 6.34-12.493 9.173 3.175-.099 13.733-5.158 12.493-9.173zm-269.489-96.45c0 4.382 1.713 9.358 2.51 13.692.741 4.044 1.351 8.11 1.963 12.171 1.326 8.796 1.703 17.714 3.142 26.533 1.304 7.997 3.024 15.96 3.973 23.956.52 4.389 1.573 8.53 2.392 12.916.427 2.287 1.985 11.708 3.948 12.635.415-3.38-1.28-7.461-1.584-10.878-.313-3.528-.555-7.08-1.128-10.627-.672-4.163-1.012-8.43-1.27-12.645-.157-2.58-.205-5.15-.428-7.728-.16-1.87-.87-4.705-.36-6.539-.042-11.823-.21-23.748-.016-35.484.053-3.258.32-6.774.792-10.008.297-2.032 2.044-6.353.895-7.328-.981-.833-6.162-.284-7.434-.314a143.012 143.012 0 0 1-7.395-.352zm130.475-111.348c-.083 2.722-1.004 5.087-1.396 7.796-.542 3.74-1.579 7.371-2.199 11.099-1.178 7.085-3.361 14.018-5.285 20.927-1.96 7.044-2.615 14.3-4.416 21.38-1.485 5.832-2.243 12.257-3.072 18.252-2.011 14.546-4.877 29.12-7.057 43.673-2.045 13.645-2.25 27.566-2.133 41.338.072 8.408 1.356 16.792 1.289 25.211-.017 2.081.158 4.156.267 6.234.076 1.466-.712 5.53-.044 6.758.423.777 2.24 1.494 2.884 2.574 1.018 1.708 1.232 3.75 2.867 5.042 1.325-5.34.699-12.389.41-17.84-.281-5.25.263-10.678.37-16.01.21-10.46.764-20.766 1.3-31.231.589-11.477 2.262-23.232 3.896-34.622 1.486-10.357 2.477-20.898 3.644-31.198 1.812-13 4.02-26.218 6.49-39.05 2.498-12.966 5.5-25.816 8.877-38.734l-6.692-1.599zm85.842 145.854c.654 2.196 1.609 8.24-.153 10.107-2.312 2.453-7.665 1.67-10.654 2.308.447 1.27 1.779 2.135 1.318 3.649 4.19.198 4.93 4.152 5.586 7.844.68 3.82-.646 5.337 3.007 7.326l.537.292c4.925 2.681 9.943 5.51 9.847 11.88-.05 3.32-.422 8.326-3.832 10.048-3.336 1.684-8.768 1.4-12.445 2.011-7.12 1.185-14.265 2.575-21.428 3.286-7.628.758-15.382 1.38-23.022 1.718-4.163.186-7.759.814-11.78-.586-3.952-1.376-7.818-2.381-11.896-3.403-4.027-1.008-16.352-2.366-12.76-9.247.575-1.1 2.539-1.976 2.856-3.017.511-1.68-1.217-2.99-1.145-4.508.132-2.776 3.267-3.124 5.431-3.124-3.71-2.32 1.258-5.064 1.229-7.033-.052-3.468-4.368-5.72-4.613-8.627-.593-7.076 21.866.292 25.323 1.822-2.66 3.943-15.005.531-18.682-.067.502 1.317.981 2.5 1.127 3.849.117 1.098-.302 2.353.082 3.459.606 1.748.585 1.414 2.734 1.89 1.589.352 3.16.76 4.744 1.133 2.433.574 6.26 2.113 8.671 2.03 2.115-.074 1.697.58 2.085-1.766.208-1.262-.148-2.602-.36-3.838-.444-2.59-1.094-5.04 1.17-6.899 2.157-1.772 6.705-2.615 9.352-3.24 5.874-1.387 12.654-1.727 18.68-1.655 4.589-.388 9.182-.69 13.782-.852 5.26-.184 1.437-1.024 1.326-4.23-6.913 1.102-13.888 1.32-20.78 2.262-5.71.781-12.512 2.82-18.337 1.725-2.746-.517-5.551-.716-8.474-1.008-2.756-.275-5.358-1.559-8.08-1.877-3.058-.359-6.181 1.359-9.222 1.812-1.29.193-1.589 1.066-2.197-.484-.632-1.608 1.176-2.923 1.888-3.884.832-1.124.486.7.948-1.054.13-.492-.222-1.727-.286-2.256-.163-1.34-.584-2.792-.65-4.128-.06-1.227-.07-3.1 1.263-3.817.813-.437 1.39.2 2.1.077 5.536-.962 12.048-1.041 17.663-.112 6.087 1.006 11.326-1.659 17.326-2.74 7.038-1.266 14.15-1.456 21.248-1.992 6.07-.457 17.16-2.831 19.473 4.916zm-82.6 40.577c1.126 2.167.623 5.035-.73 6.978 4.879 1.906 10.057 2.597 14.977 4.333 4.398 1.552 8.483 3.638 12.814 5.216.254-2.008.388-5.408-.354-7.3-1.05-2.68-3.815-2.746-6.537-3.7-6.624-2.323-13.593-2.813-20.17-5.527zm83.488-.029c-10.536.31-20.606 2.76-30.99 4.275-5.054.737-10.112 1.395-15.17 2.083-1.946.264-5.493-.047-6.908 1.637-1.173 1.395.112 6.156-.408 8.2 2.13.157 5.91-1.83 8.222-2.16 3.6-.511 7.151-1.228 10.788-1.456 5.76-.363 11.42-.671 17.17-1.312 5.847-.651 11.505-1.862 17.399-2.304 2.865-.216 4.017.321 4.186-2.702.066-1.181.229-3.16-.103-4.325.53-1.433.06-2.128-1.41-2.087a8.311 8.311 0 0 0-2.776.151zm-14.364-5.95c-5.727 1.311-11.603 1.356-17.34 2.642-5.93 1.328-11.937 2.553-17.977 3.229-2.875.321-5.961.973-8.803.214l-.693-.494c-.248-1.057-.937-1.339-2.068-.847-1.436-.273-3.265.08-4.712.116-.058.577 5.284 2.387 6.302 2.835 2.454 1.08 4.119 1.871 6.74 1.408 5.901-1.042 11.706-2.285 17.683-3.055 11.681-1.06 23.275-3.382 35.022-3.382-.83-.83-2.64-1.043-3.673-1.496-1.18-.515-2.292-1.614-3.443-2.064-2.312-.905-4.664.352-7.038.895zm2.257-13.95c-2.699-.006-5.493.564-8.181.827-12.205 1.196-24.348 1.7-36.418 3.97l.185.784c.677 2.88 1.31 5.836.505 8.767 5.79.298 12.147-.815 17.806-1.958 5.783-1.167 11.92-1.747 17.831-2.137 2.85-.267 5.71-.65 8.567-.81.58-.033 3.518.144 3.998-.395.679-.76-.078-3.546-.203-4.407-.423-2.93-.891-4.634-4.09-4.64zm-64.409-17.486c.087 1.116.151 2.234.192 3.354.456 1.778 2.373.97 4.023 1.165 2.215.262 4.42 1.026 6.565 1.602 3.896 1.046 7.793 2.078 11.673 3.184-.153-1.566.194-5.13-.634-6.52-.869-1.456-4.988-2.094-6.907-2.539-4.835-1.118-10-.481-14.912-.246zm61.356-3.976c-8.169.216-16.476.974-24.536 2.276-4.36.02-8.969 1.939-13.272 1.511-.064.8 1.313.136 1.693.885.813.002 1.096.267.848.796.015.36-.17.572-.555.633l-.568.05c-.832.027-.969.587-.409 1.684-.24 1.358.12 3.082.173 4.445 7.732-1.051 15.244-2.145 23.032-2.614 3.676-.222 7.35-.221 11.02-.523 4.04-.333 8.45.38 12.4-.376 2.111-.404 1.89-.376 1.736-3.12-.094-1.667-.059-3.646-1.417-4.862-2.268-2.03-7.433-.857-10.145-.785zM54.194 251.494c-1.173 1.237-1.861 3.517-2.846 4.963-2.245 3.298-4.911 5.545-8.395 7.447-6.267 3.421-12.107 6.061-18.82 8.298-3.7 1.233-7.111 2.963-10.727 4.322-2.897 1.089-6.895 1.42-9.12 3.843-2.512 2.735 1.348 3.729 3.493 5.578 1.757 1.514 1.792 1.862 4.196 1.127 1.791-.549 3.38-1.596 5.1-2.306 5.891-2.432 13.023-4.051 19.42-4.758 2.187.388 5.748-.867 8.133-.998 4.171-.23 8.467-.627 12.553-1.494 3.197-.679 6.84-1.276 8.564-4.369 1.542-2.764 2.086-6.225 2.916-9.241.441-1.602 1.579-3.924 1.579-5.58 0-2.155-.291-1.73-2.539-2.91-2.845-1.49-5.613-3.57-8.682-4.416-.928-.181-1.857-.359-2.786-.533-1.203-.697-1.882-.354-2.039 1.027zm217.708-9.486c-1.938.233-3.893.424-5.808.812-2.612.53-2.66.447-2.472 3.008.28 3.846-.086 7.616-.285 11.46-.398 7.698.572 15.522-.073 23.17.575.146.759-.253.554-1.196-.179-5.713 2.381-12.582 3.832-18.177 1.644-6.34 2.51-12.807 4.252-19.077zm105.595 6.246c2.277.21 4.836 1.13 7.079 1.131 2.287.003 4.683-.507 7.044-.448 2.746.069 5.39-.133 8.222.317 2.169.345 7.234.527 8.892 2.138 5.524 5.37-7.577 7.837-9.831 8.44 2.294 2.512 2.199 5.832 1.853 8.994 1.092 0 2.975-.475 3.54.75.702 1.52-1.897 1.914-2.511 2.091-3.535 1.02-7.672.741-11.314 1.112-7.283.74-14.477 1.167-21.684 2.546-3.513.672-7.004 1.504-10.514 2.158-.606.113-1.215.204-1.827.272-.94-.08-1.243.509-.912 1.77-.974.476-4.606-.71-5.729-.89-6.43-1.043-12.182-.61-18.551.939-2.761-.006 1.037-3.144 1.536-3.455-3.057 0-3.796-1.832-2.911-4.775.834-2.772 1.452-1.923-.648-4.232-1.58-1.738-1.819-3.019.044-4.962 1.896-1.977 5.735-1.418 7.414-3.05 2.86-2.777-.83-8.31 3.132-10.438 2.678-1.437 6.995-1.26 9.952-1.563 2.859-.293 5.817-.35 8.694-.39 6.272-.085 12.786.966 19.03 1.545zm-34.367 30.691l-5.231.033c1.74-.327 3.484-.33 5.23-.033zm3.138.026l-3.138-.03a5.664 5.664 0 0 1 3.138.03zm-12.701-12.774c.431 2.145-.56 3.964-2.022 5.443h2.216c4.183-.017 8.137 1.56 12.32 1.969 2.504.244 1.718.555 3.455 1.811 2.705 1.957 3.484.915 3.145-1.745-1.15-8.995-12.547-6.978-19.114-7.478zm43.266-2.016c-7.305.545-14.476 1.85-21.83 1.668-2.56-.187-.78.957-.148 2.63.777 2.056.61 4.656.789 6.82 7.485-2.853 16.195-4.522 24.154-5.483 3.774-.454 7.603-.585 11.399-.78 1.121-.057 5.173.413 5.994-.342.61-.561.182-3.656-.404-4.339-3.185-3.71-15.5-.506-19.954-.174zm2.143-4.09c-6.017.097-12.041.439-18.016.314-2.674-.056-6.139-.585-8.76-.13-1.92.334-3.526 1.311-5.632 1.675 3.093 1.665 4.662.54 7.914.16 3.25-.377 6.547-.37 9.81-.567 5.357-.325 11.068-1.607 16.347-1.258.097-.744-.457-.808-1.663-.194zm-39.7-8.661v4.279c8.826-.903 17.513.728 26.358.196 6.628.636 13.028.575 19.657 1.568-.503-4.21.098-5.285-4.682-5.509-4.26-.198-8.505-.36-12.745-.357-9.533.005-19.044-.177-28.589-.177zm48.285 1.03l1.05 4.787c6.047-1.557 12.182-2.468 18.266-3.78-6.38-1.068-12.861-1.331-19.316-1.008zm-247.19-55.19c3.046 2.98 7.61 4.128 11.274 6.09 2.994 1.604 7.676 2.634 9.568 5.276 1.232 1.72 1.85 4.879 2.78 6.896 1.028 2.231 1.978 4.498 2.93 6.764.957 2.279 1.953 4.559 2.73 6.906.48 1.456.688 4.475 1.824 5.472 1.812 1.589 7.878 2.294 10.32 2.822 4.56.988 9.762.856 14.413.925 1.922.028 3.86.29 5.696.326 2.58.049 2.334-.397 2.297-2.635-.021-1.344.006-3.788 1.804-2.681 1.226.754.382 4.095.155 5.281 10.267 1.022 20.979 1.536 31.196 1.194 10.05-.336 19.75-1.631 29.676-2.8 2.188-1.256 5.754-.918 8.174-1.444 2.734-.595 5.483-1.563 8.09-2.573 2.64-1.023 5.134-2.07 7.546-3.349 1.103-.584 2.573-1.16 3.593-1.972.822-.655 1.12-1.87 1.879-2.464 1.976-1.549 2.557-.577 2.822-3.565.287-3.246-1.535-5.084-3.803-7.512-2.03-2.174-4.669-4.053-7.22-5.582-1.13-.676-2.335-1.437-3.487-2.083-1.742-.978-4.077-2.603-4.992-.504 1.905.485 2.324 2.916.605 3.79-.944.48-2.372-.225-3.437.285-1.643.787-3.224 2.984-4.63 4.167-4.617 3.884-9.032 5.34-15.075 5.652-12.626.65-25.848-.788-38.231-2.659-3.187-.481-6.369.04-9.586-.074-3.13-.112-6.393-.796-9.47-1.325-5.926-1.017-12.172-1.854-18.007-3.351-7.055-1.81-14.135-4.153-20.76-7.185-6.354-2.91-13.536-7.718-20.673-8.088zm176.805-64.176c-2.391.592-2.945 6.066-3.67 8.126-1.33 3.779-2.78 7.41-4.49 11.027-2.716 5.75-5.599 11.297-8.663 16.872-3.231 5.88-6.645 11.535-10.682 16.904-1.326 1.765-3.126 3.147-3.98 5.083-1.346 3.044-1.91 6.673-3.195 9.841.905.459 3.24.573 4.35.792 2.063.407 3.508.768 5.49 1.749 3.49 1.727 6.422 3.774 8.754 6.88.586-1.594.739-3.343.953-5.031 2.503-12.277 3.998-24.762 6.95-36.95 1.473-6.081 2.511-12.245 3.95-18.327.67-2.83 1.175-5.687 1.827-8.511.66-2.86 2.081-5.499 2.406-8.455zm-6.455 2.235c-3.55 1.362-6.162 3.638-9.31 5.555-3.818 2.324-8.296 4.502-11.722 7.373-1.254 1.05-1.958 2.863-3.69 2.981-1.504.103-3.798-1.645-5.133-2.256-2.238-1.027-4.377-2.583-6.627-3.498-1.849-.753-2.667-.6-4.267-2.062-.897 5.337-17.221.348-20.646.267-3.168-.075-7.515.3-10.463 1.572-2.81 1.213-5.006 3.881-7.411 5.7-3.296 2.493-6.442 5.014-8.87 8.466-3.33 4.732 1.695 3.393 5.045 3.107 7.647-.653 15.085 1.167 22.458 2.923 6.589 1.57 13.097 3.454 19.404 6 3.548 1.431 7.282 2.748 10.618 4.609 1.76.981 4.612 3.384 6.63 2.691 1.851-.635 3.696-5.937 4.818-8.055 2.18-4.111 4.472-8.153 6.722-12.224 4.25-7.69 8.46-15.316 12.444-23.149zm-72.093-29.188c-1.898 2.485-4.082 4.74-6.101 7.123-3.508 4.138-7.227 8.54-11.142 12.37-4.31 4.213-8.03 9.296-10.816 14.69-.514.997-3.643 6.864-2.308 8.015 1.225 1.056 8.042-1.408 9.285-1.696 5.366-1.245 11.456-1.69 16.525-3.95 2.582-1.152 8.282-2.526 10.321-4.309 1.897-1.656 1.811-5.67.71-8.005-3.079 1.915-25.345 9.14-23.36 2.305 3.603-1.14 7.02-2.342 10.727-3.118 3.88-.814 4.139-1.745 6.326-5.07 1.658-2.52 3.67-4.485 3.2-7.571-.302-1.98-1.386-2.945-1.06-5.171.202-1.38.847-2.887 1.312-4.2.571-1.61 1.755-3.436-.997-3.515-1.52-.044-1.594.757-2.622 2.102zm72.97-11.348c-4.492-.174-10.212 3.745-14.163 5.592-4.423 2.068-7.266 2.386-7.312 7.513-.044 4.855-1.406 9.692-2.001 14.47-.26 2.086-.445 12.926-4.267 8.926-1.481-1.552-.532-3.938-.422-5.851.15-2.634.061-5.307.151-7.948.112-2.198.235-4.395.48-6.584.164-1.47 1.56-5.734.772-7.025-.859-1.405-3.736-1.494-5.12-1.831a96.8 96.8 0 0 0-7.899-1.604c-2.48-.392-4.819-.475-7.32-.588-2.722-.123-3.397-.845-3.999 2.153-.473 2.358-1.107 4.814-1.195 7.228-.083 2.266.601 4.233-1.646 5.76 4.935 0 11.36-4.39 15.863-.465 6.441 5.614-4.767 7.232-7.723 8.47 2.457 1.194 6.105 2.131 7.261 4.857 1.298 3.055-.585 4.354-3.467 4.599.27 1.177 1.308 1.942 1.617 3.359.453 2.075-1.015 1.388.858 2.994 2.467 2.114 7.545 3.528 10.57 4.874.709.317 1.426.614 2.15.892 1.134 1.008 1.971.816 2.512-.576 1.552-.982 2.933-3.172 4.31-4.447a53.426 53.426 0 0 1 10.083-7.37c-1.51-.624-3.314.787-4.762.1-1.17-.555-.73-1.565-1.43-2.321.281-.987-.015-1.347-.89-1.083a2.116 2.116 0 0 1-1.22-.221c-.731-.907-1.06-1.204-1.109-2.604-.051-1.486.81-2.01 1.14-3.2 1.074-.731 1.05-1.45-.073-2.155a5.087 5.087 0 0 1-.755-2.455c-.214-3.277 2.78-4.598 5.062-6.331-4.087-.45-3.931-5.24-1.103-7.334 2.93-2.171 9.137-1.282 12.682-.793.737.102 2.728 1.052 3.473.446.458-.371.135-3.51.156-4.065.048-1.257.354-2.757.153-4.008-.42-2.62.47-1.3-1.418-1.374zm-55.615 24.536c-3.721 2.11-6.572 5.895-7.118 10.102-.636 4.896 1.848 8.75 6.74 9.952 2.04.5 3.548.556 5.435 1.31 1.242.494 5.261 1.729 6.112.48l-.741-.272c.081-1.288-3.253-1.236-3.874-2.716-1.26-3.005 1.612-2.464 3.377-2.775-.63-1.671-12.417-1.062-9.67-5.574 1.905-3.13 9.129 1.66 11.06-1.313 1.268-1.954-2.185-2.223-3.555-2.419-2.06-.295-6.916.659-6.756-2.014.201-3.358 9.64-5.676 12.288-6.662-.293-2.3-11.654.97-13.298 1.901zm101.302-27.018c-2.265.225-4.545 1.562-6.679 2.272-3.166 1.052-7 1.63-9.888 3.313-1.867 1.088-1.95 1.289-1.93 3.188.021 1.769.592 3.926 1.65 5.31 2.2 2.873 5.847 4.394 8.976 5.827 1.81.829 3.374 2.004 4.986 3.148 1.736 1.232 5.239 1.959 6.568 3.364 3.868 4.092-3.174 3.283-5.141 3.16-4.246-.268-8.468-.227-12.745-.23-4.669-.004-9.3-.22-13.903-.069-2.695.09-5.788-1.277-7.535-3.555-.845-1.103-1.175-2.146-2.28-3.29-1.45-1.5-2.71-3.079-4.473-4.239-2.884-1.897-8.126-2.971-11.56-2.263 1.23.172 7.013 2.14 4.467 4.612-.31.301-4.03.498-4.838.87-1.46.669-3.299 1.642-4.154 3.056 2.491-.417 11.733-.9 7.018 3.878-1.157 1.173-4.48 2.344-1.652 3.59.65.287 1.95-.118 2.785.14 1.243.385 2.258 1.413 3.423 1.961 3.302 1.557 7.853 2.517 11.3 2.176 4.765-.473 9.73.378 14.464 1.001 6.277.96 12.292 2.949 18.003 5.62 3.148 1.474 6.615 3.056 10.133 3.644 3.91.654 8.054.347 12.046.6 1.407.088 5.106.772 6.478-.056 1.359-.82 1.252-2.208 1.316-3.863.165-4.258-1.764-8.427-3.498-12.247-1.487-3.277-2.612-5.78-4.92-8.598-2.964-3.621-5.545-7.529-8.321-11.308-2.093-2.849-4.208-5.656-6.342-8.502-1.526-2.037-1.453-2.738-3.754-2.51zm-82.622-18.286c-6.889.03-15.291 3.488-20.077 8.538-2.535 2.677-4.63 6.27-6.775 9.278-1.438 2.017-2.842 3.964-4.588 5.737-2.546 2.584-1.817 3.175 1.051 5.12.908-1.7 5.721-10.788 7.739-10.38 3.065.622-2.855 10.223-3.502 11.42-1.915 3.538-5.007 8.48-3.618 12.213 1.833 4.926-.825 7.734-3.133 11.932 2.424.07 2.663-.874 3.498-2.94 1.073-2.656 2.244-4.874 4.513-6.71 1.757-1.422 4.63-2.02 5.456-3.737 1.021-2.122.38-6.312.463-8.672.126-3.587.135-12.066 4.09-13.66 4.144-1.67 11.594-.096 15.645 1.141-.506-3.16-2.101-5.226-2.08-8.738.024-3.677 1.037-6.957 1.318-10.542zm53.7 32.178c-.787 2.323-4.093 8.01-1.202 9.457.673.337 3.86-.055 4.423-.277 1.566.408 2.071-.178 1.517-1.76v-3.168c.188-2.09 1.95-6.026-.08-7.4-2.838-1.921-4.015 1.246-4.658 3.148zm10.483 3.335c-1.02 1.791-1.095 3.829-1.04 5.834 2.66-.136 5.31.458 7.972.199l-6.932-6.033zm-23.61-43.454c-2.528.51-9.853 1.15-11.077 3.004-.768 1.163-.339 4.005-.908 5.427-.784 1.96-2.123 3.776-3.198 5.585-3.921 6.604-7.91 13.25-14.62 17.032l3.345 2.622c3.595-3.246 7.846-5.85 12.285-7.779 3.971-1.726 8.904-3.65 13.322-3.35 5.505.373 3.204 4.804 3.185 8.578-.026 5.006-2.222 12.22 3.76 14.817 1.953-6.933 6.07-23.327 15.93-14.242 2.52-6.666 11.508-8.922 17.837-10.147-1.148-3.368-4.632-6.416-7.047-8.944-3.021-3.162-5.406-6.869-8.433-9.97-5.98-6.127-16.812-4.16-24.382-2.633zM266.31 14.763c.52 2.688-.477 5.353-.493 8.036 2.86-.774 4.828-.79 7.65.585 1.345.655 6.41 4.37 3.844 6.157-2.079-1.229-4.303-2.294-6.62-3.016-.915-.285-2.056-.673-3.028-.693-2.257-.045-1.94.19-2.787 1.892-.817 1.638-.641 5.91-2.434 6.957-1.855 1.081-.425-.433-2.008-.083-.903.2-1.887.87-2.714 1.25 1.133 1.229 3.42 2.35 4.17 3.715 1.096 1.99.716 6.106.888 8.283 1.434-.513 2.945-.534 4.4-.916 1.366-.358 3.262-1.911 3.405.372.159 2.544-3.865 3.218-5.672 3.218l-2.155-.2c.107 1.513-.212 3.963.855 4.752.808.598 2.445.401 3.425.593 3.213.627 6.936 1.152 10.125.009 1.24-.444.444-1.14 2.15-.851 2.056.349 1.305.674 1.899 1.955.457.99.692 2.672 1.211 3.86.695 1.589 2.103 4.432 1.5 6.267-.584 1.783-2.767 2.322-3.694 4.342-.69 1.502-.527 3.685-.886 5.339-.478 2.206-1.082 4.404-1.35 6.65-.335 2.83-.22 6.152 3.29 6.59 3.256.409 5.585-.637 7.769-3.008 4.17-4.525 8.933-10.913 11.384-16.605.286-.665.99-1.775.892-2.487-.194-1.408-.279.018-.725-.96-.427-.935-1.096-1.784-1.489-2.821a54.623 54.623 0 0 1-2.985-11.582 31.867 31.867 0 0 1-.3-5.358c.015-.617.385-2.467.164-2.89-.225-.427-1.398-.624-1.764-1.049-.678-.786-1.843-3.007-2.594-3.596-.924-.724-2.992-.15-3.368-1.59-.6-2.303 13.613-6.055 6.973-9.128-4.958-2.295-12.561 9.305-14.295.177-.3-1.58.272-3.727-.422-5.176-.767-1.601-2.855-2.2-4.313-2.98-1.861-.993-3.741-2.014-5.55-3.102-1.24-.746-3.028-2.727-4.348-2.908zM324.165 299.5c-.019.698-.037 1.397-.057 2.091-.287-.716-.254-1.411.057-2.09zM289.958.577l-1.109-.14-.897-.115.05.004c.658.01 1.354-.402 1.956.251zm106 295.913c-.454.46-1.038.188-1.569.218l1.57-.218zm-62.243-16.724c-.691.326-1.389.37-2.093.022l2.093-.022zm57.013-30.838l2.092.004c-.698.362-1.395.316-2.092-.004zm-127.264 28.618c.278.69.451 1.094.553 1.318l.01.025c-.023-.008-.038.026-.033.138-.974.13-1.151-.363-.53-1.481zm42.912-1.568l-.081 1.568c-.186-.54-.277-1.073.081-1.568zm-80.412-36.466l2.092.009c-.7.337-1.397.37-2.092-.01zM336.33 129.489l-2.092-.2c.701.043 1.473-.294 2.092.2zM139.66 359.47l-2.093-.002c.698-.36 1.395-.257 2.092.002zm261.53-49.912c-.814.51-1.744.132-2.616.199l2.615-.2zm-2.093 20.91c-.65.458-1.386.195-2.092.178l2.092-.177zm-19.353 2.34l-2.092-.005c.698-.255 1.397-.343 2.092.006zm25.63-45.2c-.517.37-1.04.318-1.57.027.523-.01 1.047-.017 1.57-.026zm-49.689-4.754l1.044.066c-.176.43-1.1.375-1.043-.066zm-18.832-11.21l-2.615.01c.87-.349 1.742-.281 2.615-.01zm42.368-11.28c.003.001-2.538.396-2.678.385l-.984-.34 3.662-.044zm1.569-.191l-1.444-.081.055-.01c.413-.092 1.394-.414 1.389.09zm47.594 82.714l-2.088-.235c.559-1.013 2.182-1.226 2.088.235zm8.77-7.586c1.686.306 4.215 1.702 1.643 3.512-1.506 1.06-5.881-.24-7.712-.291l-.252-.017c-2.382-.17-5.407-.84-1.883-2.49 2.316-1.083 5.76-1.158 8.205-.714zM231.219 229.455c1.107 1.206 6.095 5.297 3.345 6.942-3.38 2.022-5.954-4.655-3.345-6.942zm20.046.659c.375.957 2.306 3.287 1.822 4.305-.719 1.511-2.437.548-3.37-.433-1.636-1.72-1.52-4.479-.56-6.442 2.194-.883 1.776 1.728 2.108 2.57zm-61.054-5.874c1.107.81 2.933 4.92 2.794 6.312-.17 1.717-.954 2.402-2.571 1.855-1.86-.63-2.597-3.798-2.652-5.526.566-2.31.412-4.117 2.43-2.641zm80.111 2.666c.695.94 1.411.56 1.055 2.111-.312 1.355-1.556 1.483-2.624 1.483-1.313-2.526-1.637-7.936 1.57-3.594zm-30.875-4.246c3.381 1.634-1.376 8.815-4.45 7.037-3.934-2.275 3.06-6.013 4.45-7.037zm-23.713 7.303c-1.828 0-6.191-5.267-3.627-6.15 3.182-1.097 5.843 6.538 3.627 6.15zm63.17-8.349c1.673.413 3.889 5.15 1.366 5.699-2.793.609-3.292-4.389-1.367-5.699zm-100.594-1.968c3.38 1.024-1.913 6.108-3.773 6.673-1.1-2.126.414-7.69 3.773-6.673zm21.285-2.214c1.338 2.013.943 8.325-1.853 4.592-1.19-1.587-.37-4.516 1.853-4.592zm90.095-4.575c4.684 0 2.64 4.982-1.265 5.093-1.794.052-4.375-.302-3.793-2.702.31-1.281 4.862-3.008 5.058-2.391zM268.566 33.855c-2.12.944-1.854-5.098-1.705-6.122 2.597-.67 3.22 5.448 1.705 6.122z" fill="#000"></path></g></svg> 