<svg id="visual" viewBox="0 0 1920 700" width="1920" height="700" xmlns="http://www.w3.org/2000/svg" xmlns:xlink="http://www.w3.org/1999/xlink" version="1.1"><rect x="0" y="0" width="1920" height="700" fill="#faf9f7"></rect><path d="M0 449L45.7 440.5C91.3 432 182.7 415 274.2 407.3C365.7 399.7 457.3 401.3 548.8 423.5C640.3 445.7 731.7 488.3 823 496.2C914.3 504 1005.7 477 1097 461C1188.3 445 1279.7 440 1371.2 430.7C1462.7 421.3 1554.3 407.7 1645.8 405.3C1737.3 403 1828.7 412 1874.3 416.5L1920 421L1920 701L1874.3 701C1828.7 701 1737.3 701 1645.8 701C1554.3 701 1462.7 701 1371.2 701C1279.7 701 1188.3 701 1097 701C1005.7 701 914.3 701 823 701C731.7 701 640.3 701 548.8 701C457.3 701 365.7 701 274.2 701C182.7 701 91.3 701 45.7 701L0 701Z" fill="#005bb9" stroke-linecap="round" stroke-linejoin="miter"></path></svg>